<svg width="411" height="289" viewBox="0 0 411 289" fill="none" xmlns="http://www.w3.org/2000/svg">
<g clip-path="url(#clip0_359_506)" filter="url(#filter0_d_359_506)">
<path d="M508.478 0H5.52173C2.47216 0 0 3.42434 0 7.64847V279.169C0 283.393 2.47216 286.818 5.52173 286.818H508.478C511.528 286.818 514 283.393 514 279.169V7.64847C514 3.42434 511.528 0 508.478 0Z" fill="#F9F9F9"/>
<path d="M537.534 0H6.46596C3.44719 0 1 3.40279 1 7.60034V295.4C1 299.597 3.44719 303 6.46596 303H537.534C540.553 303 543 299.597 543 295.4V7.60034C543 3.40279 540.553 0 537.534 0Z" stroke="#E0E0E0" stroke-width="0.904184"/>
<mask id="mask0_359_506" style="mask-type:luminance" maskUnits="userSpaceOnUse" x="11" y="11" width="494" height="265">
<path d="M499.522 11.2797H16.5132C13.7453 11.2797 11.5015 14.7149 11.5015 18.9524V268.316C11.5015 272.553 13.7453 275.989 16.5132 275.989H499.522C502.29 275.989 504.534 272.553 504.534 268.316V18.9524C504.534 14.7149 502.29 11.2797 499.522 11.2797Z" fill="white"/>
</mask>
<g mask="url(#mask0_359_506)">
<path d="M499.521 11.3591H16.3727C13.604 11.3591 11.3595 14.7987 11.3595 19.0416V268.723C11.3595 272.966 13.604 276.405 16.3727 276.405H499.521C502.29 276.405 504.534 272.966 504.534 268.723V19.0416C504.534 14.7987 502.29 11.3591 499.521 11.3591Z" fill="white"/>
<path d="M14.0714 11.8766L765.579 11.8545" stroke="#F9F9F9" stroke-width="0.855894" stroke-linecap="round"/>
<path d="M14.0714 45.7151L765.579 45.6933" stroke="#F9F9F9" stroke-width="0.855894" stroke-linecap="round"/>
<path d="M14.0714 79.555L765.579 79.5332" stroke="#F9F9F9" stroke-width="0.855894" stroke-linecap="round"/>
<path d="M14.0714 113.394L765.579 113.372" stroke="#F9F9F9" stroke-width="0.855894" stroke-linecap="round"/>
<path d="M14.0714 147.234L765.579 147.211" stroke="#F9F9F9" stroke-width="0.855894" stroke-linecap="round"/>
<path d="M14.0714 181.072L765.579 181.049" stroke="#F9F9F9" stroke-width="0.855894" stroke-linecap="round"/>
<path d="M14.0714 214.911L765.579 214.889" stroke="#F9F9F9" stroke-width="0.855894" stroke-linecap="round"/>
<path d="M14.0714 248.75L765.579 248.729" stroke="#F9F9F9" stroke-width="0.855894" stroke-linecap="round"/>
<path d="M11.1964 248.75V10.8959" stroke="#F2F2F2" stroke-width="0.855894" stroke-linecap="round"/>
<path d="M74.0626 248.75V10.8959" stroke="#F2F2F2" stroke-width="0.855894" stroke-linecap="round"/>
<path d="M136.927 248.751V10.8959" stroke="#F2F2F2" stroke-width="0.855894" stroke-linecap="round"/>
<path d="M199.792 248.75V10.8959" stroke="#F2F2F2" stroke-width="0.855894" stroke-linecap="round"/>
<path d="M262.656 248.75V10.8959" stroke="#F2F2F2" stroke-width="0.855894" stroke-linecap="round"/>
<path d="M325.524 248.751V10.8959" stroke="#F2F2F2" stroke-width="0.855894" stroke-linecap="round"/>
<path d="M388.388 248.751V10.8959" stroke="#F2F2F2" stroke-width="0.855894" stroke-linecap="round"/>
<path d="M23.4607 41.9466V36.3646L21.9558 37.3044V36.4988L23.5471 35.5011H24.2084V41.9466H23.4607ZM26.8307 41.9466V36.3646L25.3257 37.3044V36.4988L26.917 35.5011H27.5784V41.9466H26.8307ZM31.6339 42.0809C30.0715 42.0809 28.9787 40.8146 28.9787 38.7234C28.9787 36.6331 30.0619 35.3668 31.6339 35.3668C33.206 35.3668 34.2891 36.6331 34.2891 38.7234C34.2891 40.8146 33.1964 42.0809 31.6339 42.0809ZM31.6339 41.3802C32.7746 41.3802 33.5414 40.4118 33.5414 38.7234C33.5414 37.0359 32.7746 36.0675 31.6339 36.0675C30.4932 36.0675 29.7264 37.0359 29.7264 38.7234C29.7264 40.4118 30.4932 41.3802 31.6339 41.3802ZM35.3489 41.9466V34.9447H36.0966V39.1262H36.1157L38.2341 36.863H39.2885L37.4001 38.8292L39.4132 41.9466H38.5313L36.8826 39.3662H36.8634L36.0966 40.1819V41.9466H35.3489Z" fill="#828282"/>
<path d="M22.2029 75.5933V70.0121L20.698 70.9519V70.1463L22.2892 69.1486H22.9506V75.5933H22.2029ZM27.0062 75.7276C25.4438 75.7276 24.351 74.4621 24.351 72.3709C24.351 70.2806 25.4341 69.0143 27.0062 69.0143C28.5782 69.0143 29.6614 70.2806 29.6614 72.3709C29.6614 74.4621 28.5687 75.7276 27.0062 75.7276ZM27.0062 75.0277C28.1469 75.0277 28.9137 74.0593 28.9137 72.3709C28.9137 70.6834 28.1469 69.7142 27.0062 69.7142C25.8655 69.7142 25.0987 70.6834 25.0987 72.3709C25.0987 74.0593 25.8655 75.0277 27.0062 75.0277ZM33.1751 75.7276C31.6126 75.7276 30.5199 74.4621 30.5199 72.3709C30.5199 70.2806 31.603 69.0143 33.1751 69.0143C34.7471 69.0143 35.8303 70.2806 35.8303 72.3709C35.8303 74.4621 34.7374 75.7276 33.1751 75.7276ZM33.1751 75.0277C34.3157 75.0277 35.0826 74.0593 35.0826 72.3709C35.0826 70.6834 34.3157 69.7142 33.1751 69.7142C32.0344 69.7142 31.2675 70.6834 31.2675 72.3709C31.2675 74.0593 32.0344 75.0277 33.1751 75.0277ZM36.8899 75.5933V68.5922H37.6376V72.7737H37.6568L39.7752 70.5105H40.8296L38.9413 72.4767L40.9542 75.5933H40.0723L38.4236 73.0137H38.4044L37.6376 73.8286V75.5933H36.8899Z" fill="#828282"/>
<path d="M25.1705 102.663C26.685 102.663 27.6818 103.66 27.6818 105.646C27.6818 108.255 26.9534 109.386 25.2376 109.386C24.164 109.386 23.3587 108.792 23.0808 107.746L23.8093 107.554C24.0585 108.341 24.5665 108.667 25.2376 108.667C26.3015 108.667 26.8 108.015 26.8767 106.336H26.8479C26.5028 106.787 25.9181 107.066 25.1321 107.066C23.6847 107.066 22.7932 106.211 22.7932 104.84C22.7932 103.574 23.7997 102.663 25.1705 102.663ZM25.1705 106.365C26.1194 106.365 26.7616 105.771 26.7616 104.888C26.7616 103.987 26.129 103.382 25.1705 103.382C24.2023 103.382 23.5697 103.967 23.5697 104.84C23.5697 105.78 24.1927 106.365 25.1705 106.365ZM31.1983 109.377C29.6358 109.377 28.5431 108.11 28.5431 106.02C28.5431 103.929 29.6262 102.663 31.1983 102.663C32.7703 102.663 33.8535 103.929 33.8535 106.02C33.8535 108.11 32.7607 109.377 31.1983 109.377ZM31.1983 108.677C32.339 108.677 33.1058 107.707 33.1058 106.02C33.1058 104.332 32.339 103.363 31.1983 103.363C30.0576 103.363 29.2908 104.332 29.2908 106.02C29.2908 107.707 30.0576 108.677 31.1983 108.677ZM34.9132 109.242V102.241H35.6608V106.423H35.6801L37.7984 104.16H38.8528L36.9645 106.126L38.9774 109.242H38.0956L36.4469 106.663H36.4277L35.6608 107.478V109.242H34.9132Z" fill="#828282"/>
<path d="M25.1711 143.034C23.6757 143.034 22.698 142.258 22.698 141.107C22.698 140.292 23.1773 139.678 23.9824 139.38V139.361C23.369 139.054 23.0719 138.613 23.0719 138.008C23.0719 137.031 23.9538 136.311 25.1711 136.311C26.3885 136.311 27.2704 137.031 27.2704 138.008C27.2704 138.603 26.9732 139.045 26.3693 139.361V139.38C27.1553 139.678 27.6442 140.292 27.6442 141.107C27.6442 142.258 26.6664 143.034 25.1711 143.034ZM25.1711 139.073C25.9859 139.073 26.5322 138.671 26.5322 138.047C26.5322 137.414 25.9763 136.982 25.1711 136.982C24.3563 136.982 23.8195 137.414 23.8195 138.047C23.8195 138.671 24.3563 139.073 25.1711 139.073ZM25.1711 142.315C26.2063 142.315 26.8677 141.836 26.8677 141.059C26.8677 140.292 26.2063 139.773 25.1711 139.773C24.1358 139.773 23.4745 140.292 23.4745 141.059C23.4745 141.836 24.1263 142.315 25.1711 142.315ZM30.8806 143.025C29.3182 143.025 28.2254 141.759 28.2254 139.668C28.2254 137.577 29.3086 136.311 30.8806 136.311C32.4527 136.311 33.5358 137.577 33.5358 139.668C33.5358 141.759 32.4431 143.025 30.8806 143.025ZM30.8806 142.325C32.0213 142.325 32.7882 141.356 32.7882 139.668C32.7882 137.98 32.0213 137.012 30.8806 137.012C29.7399 137.012 28.9731 137.98 28.9731 139.668C28.9731 141.356 29.7399 142.325 30.8806 142.325ZM34.5955 142.891V135.89H35.3432V140.071H35.3624L37.4808 137.807H38.5353L36.6469 139.773L38.6598 142.891H37.7779L36.1292 140.31H36.1101L35.3432 141.126V142.891H34.5955Z" fill="#828282"/>
<path d="M23.8279 176.54L26.5598 170.804V170.794H23.0227V170.094H27.4033V170.756L24.6618 176.54H23.8279ZM30.206 176.674C28.6435 176.674 27.5508 175.408 27.5508 173.317C27.5508 171.226 28.6339 169.96 30.206 169.96C31.778 169.96 32.8612 171.226 32.8612 173.317C32.8612 175.408 31.7684 176.674 30.206 176.674ZM30.206 175.974C31.3467 175.974 32.1135 175.005 32.1135 173.317C32.1135 171.629 31.3467 170.66 30.206 170.66C29.0653 170.66 28.2985 171.629 28.2985 173.317C28.2985 175.005 29.0653 175.974 30.206 175.974ZM33.9209 176.54V169.538H34.6685V173.72H34.6877L36.8062 171.456H37.8606L35.9722 173.422L37.9852 176.54H37.1033L35.4546 173.96H35.4354L34.6685 174.775V176.54H33.9209Z" fill="#828282"/>
<path d="M25.2985 205.9C26.6118 205.9 27.5895 206.83 27.5895 208.106C27.5895 209.458 26.5351 210.321 25.2123 210.321C23.4677 210.321 22.4708 209.065 22.4708 207.06C22.4708 205.037 23.6499 203.608 25.2411 203.608C26.3721 203.608 27.2061 204.202 27.4841 205.325L26.7556 205.497C26.5159 204.643 25.9983 204.308 25.2602 204.308C24.1579 204.308 23.3239 205.315 23.2664 206.888H23.2952C23.6211 206.302 24.3496 205.9 25.2985 205.9ZM25.2123 209.621C26.075 209.621 26.8418 209.074 26.8418 208.106C26.8418 207.166 26.1517 206.562 25.2027 206.562C24.1866 206.562 23.5061 207.224 23.5061 208.106C23.5061 208.969 24.1675 209.621 25.2123 209.621ZM30.9204 210.321C29.358 210.321 28.2652 209.056 28.2652 206.965C28.2652 204.873 29.3484 203.608 30.9204 203.608C32.4925 203.608 33.5756 204.873 33.5756 206.965C33.5756 209.056 32.4829 210.321 30.9204 210.321ZM30.9204 209.621C32.0611 209.621 32.8279 208.653 32.8279 206.965C32.8279 205.276 32.0611 204.308 30.9204 204.308C29.7797 204.308 29.0129 205.276 29.0129 206.965C29.0129 208.653 29.7797 209.621 30.9204 209.621ZM34.6353 210.187V203.186H35.383V207.367H35.4022L37.5206 205.104H38.575L36.6867 207.07L38.6996 210.187H37.8178L36.169 207.607H36.1499L35.383 208.422V210.187H34.6353Z" fill="#828282"/>
<path d="M25.2957 243.97C23.9634 243.97 23.1007 243.288 22.8419 242.128L23.5608 241.946C23.7621 242.818 24.3084 243.27 25.2957 243.27C26.2927 243.27 26.9733 242.636 26.9733 241.677C26.9733 240.785 26.3215 240.124 25.2957 240.124C24.596 240.124 24.088 240.401 23.6663 240.814L22.9857 240.641L23.6375 237.39H27.1458V238.09H24.2126L23.8388 239.912L23.858 239.922C24.2606 239.624 24.7686 239.462 25.4108 239.462C26.7528 239.462 27.7209 240.401 27.7209 241.677C27.7209 243.049 26.724 243.97 25.2957 243.97ZM31.1522 243.97C29.5897 243.97 28.497 242.703 28.497 240.613C28.497 238.522 29.5802 237.255 31.1522 237.255C32.7243 237.255 33.8074 238.522 33.8074 240.613C33.8074 242.703 32.7146 243.97 31.1522 243.97ZM31.1522 243.27C32.2928 243.27 33.0597 242.3 33.0597 240.613C33.0597 238.925 32.2928 237.956 31.1522 237.956C30.0115 237.956 29.2446 238.925 29.2446 240.613C29.2446 242.3 30.0115 243.27 31.1522 243.27ZM34.8671 243.835V236.834H35.6148V241.016H35.634L37.7523 238.752H38.8067L36.9184 240.718L38.9314 243.835H38.0495L36.4008 241.255H36.3816L35.6148 242.071V243.835H34.8671Z" fill="#828282"/>
<path d="M76.796 180.774L143.338 135.832L208.984 123.728H288.877L342.938 146.592L389.955 153.317L449.391 176.853H496.409L538.102 197.027L627.701 204.424L682.702 211.821L760.768 223.925L826.414 240.738" stroke="#453848" stroke-width="1.28385" stroke-linecap="round" stroke-dasharray="2.57 2.57"/>
<path d="M75.9181 182.232L141.066 123.481L207.095 88.2302L290.538 77.6913" stroke="#453848" stroke-width="1.28385"/>
<path d="M74.0001 183.19L164.917 74.9117L232.242 54.2181L296.115 46.9999H388.758H566.859" stroke="#BDBDBD" stroke-width="0.855894" stroke-dasharray="1.71 1.71"/>
<path d="M290.535 77.6913L344.311 123.555L388.721 136.796L449.118 161.071L495.305 164.013L537.939 189.023L628.536 200.792L760.879 216.975L828.382 239.778" stroke="#453848" stroke-width="1.28385"/>
<path d="M290.633 127.564C292.221 127.564 293.509 126.275 293.509 124.686C293.509 123.097 292.221 121.809 290.633 121.809C289.045 121.809 287.757 123.097 287.757 124.686C287.757 126.275 289.045 127.564 290.633 127.564Z" fill="#453848" stroke="#453848" stroke-width="1.7118"/>
<path d="M290.633 81.5274C292.221 81.5274 293.509 80.2392 293.509 78.6501C293.509 77.061 292.221 75.7728 290.633 75.7728C289.045 75.7728 287.757 77.061 287.757 78.6501C287.757 80.2392 289.045 81.5274 290.633 81.5274Z" fill="#453848" stroke="#453848" stroke-width="1.7118"/>
<path d="M30.0829 265.621C29.9679 265.839 29.9103 266.105 29.8988 266.611H34.2813V267.451H28.9441V266.726C28.9441 266.07 29.0477 265.598 29.2661 265.229C29.5652 264.723 30.0484 264.367 31.3367 263.733C33.0045 262.917 33.5106 262.456 33.5106 261.685C33.5106 260.937 32.809 260.396 31.7852 260.396C30.5544 260.396 29.8068 261.087 29.7148 262.283L28.8291 262.214C28.9211 260.581 30.0714 259.556 31.7852 259.556C33.2691 259.556 34.4079 260.476 34.4079 261.685C34.4079 262.813 33.7982 263.481 32.0268 264.332C30.6695 264.988 30.2899 265.241 30.0829 265.621ZM38.3927 267.612C36.5178 267.612 35.2065 266.093 35.2065 263.584C35.2065 261.075 36.5063 259.556 38.3927 259.556C40.2792 259.556 41.579 261.075 41.579 263.584C41.579 266.093 40.2677 267.612 38.3927 267.612ZM38.3927 266.772C39.7616 266.772 40.6818 265.61 40.6818 263.584C40.6818 261.558 39.7616 260.396 38.3927 260.396C37.0239 260.396 36.1037 261.558 36.1037 263.584C36.1037 265.61 37.0239 266.772 38.3927 266.772ZM44.1876 267.451V260.753L42.3817 261.88V260.914L44.2911 259.717H45.0849V267.451H44.1876ZM49.503 259.556C51.3204 259.556 52.5166 260.753 52.5166 263.135C52.5166 266.266 51.6425 267.624 49.5835 267.624C48.2952 267.624 47.3289 266.91 46.9954 265.656L47.8696 265.426C48.1686 266.369 48.7783 266.761 49.5835 266.761C50.8603 266.761 51.4584 265.978 51.5505 263.964H51.5159C51.1019 264.504 50.4001 264.838 49.4569 264.838C47.72 264.838 46.6503 263.814 46.6503 262.168C46.6503 260.649 47.8581 259.556 49.503 259.556ZM49.503 263.998C50.6418 263.998 51.4124 263.285 51.4124 262.226C51.4124 261.144 50.6532 260.419 49.503 260.419C48.3412 260.419 47.5821 261.121 47.5821 262.168C47.5821 263.296 48.3297 263.998 49.503 263.998Z" fill="#828282"/>
<path d="M92.8838 265.621C92.7689 265.84 92.7111 266.105 92.6993 266.611H97.0823V267.451H91.7449V266.726C91.7449 266.07 91.8489 265.598 92.067 265.23C92.3664 264.724 92.8495 264.367 94.1377 263.733C95.8058 262.917 96.3116 262.456 96.3116 261.685C96.3116 260.937 95.6096 260.396 94.5864 260.396C93.3552 260.396 92.6079 261.087 92.5157 262.283L91.63 262.214C91.7223 260.581 92.8721 259.556 94.5864 259.556C96.07 259.556 97.2089 260.477 97.2089 261.685C97.2089 262.813 96.5992 263.481 94.8279 264.332C93.4701 264.988 93.091 265.241 92.8838 265.621ZM101.194 267.612C99.3191 267.612 98.0074 266.093 98.0074 263.584C98.0074 261.075 99.3073 259.556 101.194 259.556C103.08 259.556 104.38 261.075 104.38 263.584C104.38 266.093 103.069 267.612 101.194 267.612ZM101.194 266.772C102.562 266.772 103.482 265.61 103.482 263.584C103.482 261.558 102.562 260.396 101.194 260.396C99.8248 260.396 98.9048 261.558 98.9048 263.584C98.9048 265.61 99.8248 266.772 101.194 266.772ZM106.442 265.621C106.327 265.84 106.269 266.105 106.258 266.611H110.641V267.451H105.303V266.726C105.303 266.07 105.407 265.598 105.625 265.23C105.925 264.724 106.408 264.367 107.696 263.733C109.364 262.917 109.87 262.456 109.87 261.685C109.87 260.937 109.168 260.396 108.145 260.396C106.913 260.396 106.166 261.087 106.074 262.283L105.188 262.214C105.28 260.581 106.43 259.556 108.145 259.556C109.628 259.556 110.767 260.477 110.767 261.685C110.767 262.813 110.157 263.481 108.386 264.332C107.028 264.988 106.649 265.241 106.442 265.621ZM114.752 267.612C112.877 267.612 111.566 266.093 111.566 263.584C111.566 261.075 112.866 259.556 114.752 259.556C116.638 259.556 117.938 261.075 117.938 263.584C117.938 266.093 116.627 267.612 114.752 267.612ZM114.752 266.772C116.121 266.772 117.041 265.61 117.041 263.584C117.041 261.558 116.121 260.396 114.752 260.396C113.383 260.396 112.463 261.558 112.463 263.584C112.463 265.61 113.383 266.772 114.752 266.772Z" fill="#828282"/>
<path d="M158.318 265.621C158.203 265.839 158.145 266.105 158.134 266.611H162.516V267.451H157.179V266.726C157.179 266.07 157.283 265.598 157.501 265.229C157.8 264.723 158.283 264.367 159.572 263.733C161.24 262.917 161.745 262.456 161.745 261.685C161.745 260.937 161.044 260.396 160.02 260.396C158.79 260.396 158.042 261.087 157.949 262.283L157.064 262.214C157.156 260.581 158.306 259.556 160.02 259.556C161.504 259.556 162.643 260.476 162.643 261.685C162.643 262.813 162.033 263.481 160.262 264.332C158.905 264.988 158.525 265.241 158.318 265.621ZM166.627 267.612C164.753 267.612 163.441 266.093 163.441 263.584C163.441 261.075 164.741 259.556 166.627 259.556C168.514 259.556 169.814 261.075 169.814 263.584C169.814 266.093 168.503 267.612 166.627 267.612ZM166.627 266.772C167.996 266.772 168.917 265.61 168.917 263.584C168.917 261.558 167.996 260.396 166.627 260.396C165.259 260.396 164.339 261.558 164.339 263.584C164.339 265.61 165.259 266.772 166.627 266.772ZM171.876 265.621C171.761 265.839 171.704 266.105 171.692 266.611H176.074V267.451H170.738V266.726C170.738 266.07 170.841 265.598 171.06 265.229C171.358 264.723 171.842 264.367 173.13 263.733C174.798 262.917 175.304 262.456 175.304 261.685C175.304 260.937 174.602 260.396 173.578 260.396C172.348 260.396 171.6 261.087 171.508 262.283L170.622 262.214C170.714 260.581 171.865 259.556 173.578 259.556C175.062 259.556 176.201 260.476 176.201 261.685C176.201 262.813 175.591 263.481 173.82 264.332C172.463 264.988 172.083 265.241 171.876 265.621ZM178.814 267.451V260.753L177.009 261.88V260.914L178.918 259.717H179.712V267.451H178.814Z" fill="#828282"/>
<path d="M221.461 265.413C221.357 265.551 221.323 265.689 221.323 265.943H225.268V267.45H219.449V266.311C219.449 265.609 219.61 265.079 219.943 264.688C220.322 264.239 220.932 263.859 221.898 263.445C223.267 262.858 223.692 262.513 223.692 261.937C223.692 261.385 223.233 261.039 222.485 261.039C221.588 261.039 221.047 261.534 220.967 262.455L219.333 262.328C219.449 260.59 220.644 259.543 222.485 259.543C224.175 259.543 225.338 260.556 225.338 261.949C225.338 263.088 224.613 263.871 223.06 264.55C221.806 265.091 221.611 265.206 221.461 265.413ZM229.238 267.623C227.247 267.623 225.855 266.092 225.855 263.583C225.855 261.074 227.236 259.543 229.238 259.543C231.227 259.543 232.608 261.074 232.608 263.583C232.608 266.092 231.216 267.623 229.238 267.623ZM229.238 266.126C230.307 266.126 230.963 265.286 230.963 263.583C230.963 261.879 230.307 261.039 229.238 261.039C228.156 261.039 227.501 261.879 227.501 263.583C227.501 265.286 228.156 266.126 229.238 266.126ZM235.12 265.413C235.017 265.551 234.983 265.689 234.983 265.943H238.928V267.45H233.107V266.311C233.107 265.609 233.268 265.079 233.602 264.688C233.982 264.239 234.591 263.859 235.558 263.445C236.927 262.858 237.352 262.513 237.352 261.937C237.352 261.385 236.892 261.039 236.144 261.039C235.247 261.039 234.707 261.534 234.626 262.455L232.992 262.328C233.107 260.59 234.304 259.543 236.144 259.543C237.835 259.543 238.997 260.556 238.997 261.949C238.997 263.088 238.272 263.871 236.72 264.55C235.466 265.091 235.27 265.206 235.12 265.413ZM241.928 265.413C241.824 265.551 241.789 265.689 241.789 265.943H245.735V267.45H239.915V266.311C239.915 265.609 240.076 265.079 240.41 264.688C240.789 264.239 241.399 263.859 242.365 263.445C243.734 262.858 244.16 262.513 244.16 261.937C244.16 261.385 243.699 261.039 242.952 261.039C242.054 261.039 241.514 261.534 241.433 262.455L239.8 262.328C239.915 260.59 241.111 259.543 242.952 259.543C244.643 259.543 245.804 260.556 245.804 261.949C245.804 263.088 245.08 263.871 243.526 264.55C242.273 265.091 242.077 265.206 241.928 265.413Z" fill="#828282"/>
<path d="M284.929 265.621C284.814 265.839 284.756 266.105 284.744 266.611H289.127V267.451H283.79V266.726C283.79 266.07 283.893 265.598 284.112 265.229C284.411 264.723 284.894 264.367 286.183 263.733C287.85 262.917 288.357 262.456 288.357 261.685C288.357 260.937 287.655 260.396 286.631 260.396C285.4 260.396 284.653 261.087 284.561 262.283L283.675 262.214C283.766 260.581 284.917 259.556 286.631 259.556C288.115 259.556 289.254 260.476 289.254 261.685C289.254 262.813 288.644 263.481 286.873 264.332C285.515 264.988 285.136 265.241 284.929 265.621ZM293.239 267.612C291.363 267.612 290.052 266.093 290.052 263.584C290.052 261.075 291.352 259.556 293.239 259.556C295.125 259.556 296.425 261.075 296.425 263.584C296.425 266.093 295.113 267.612 293.239 267.612ZM293.239 266.772C294.607 266.772 295.527 265.61 295.527 263.584C295.527 261.558 294.607 260.396 293.239 260.396C291.87 260.396 290.95 261.558 290.95 263.584C290.95 265.61 291.87 266.772 293.239 266.772ZM298.487 265.621C298.372 265.839 298.314 266.105 298.303 266.611H302.686V267.451H297.348V266.726C297.348 266.07 297.451 265.598 297.67 265.229C297.97 264.723 298.453 264.367 299.741 263.733C301.408 262.917 301.915 262.456 301.915 261.685C301.915 260.937 301.213 260.396 300.19 260.396C298.958 260.396 298.211 261.087 298.119 262.283L297.233 262.214C297.326 260.581 298.475 259.556 300.19 259.556C301.673 259.556 302.812 260.476 302.812 261.685C302.812 262.813 302.202 263.481 300.431 264.332C299.073 264.988 298.694 265.241 298.487 265.621ZM306.702 267.612C305 267.612 303.929 266.622 303.746 264.885L304.631 264.746C304.781 266.093 305.494 266.772 306.702 266.772C307.76 266.772 308.45 266.162 308.45 265.265C308.45 264.217 307.817 263.722 306.529 263.722H305.954V262.928H306.529C307.495 262.928 308.244 262.375 308.244 261.673C308.244 260.879 307.656 260.396 306.69 260.396C305.678 260.396 304.977 260.937 304.838 261.846L303.953 261.719C304.136 260.396 305.207 259.556 306.69 259.556C308.151 259.556 309.14 260.373 309.14 261.604C309.14 262.283 308.715 262.928 308.036 263.227V263.25C308.852 263.549 309.347 264.298 309.347 265.265C309.347 266.669 308.289 267.612 306.702 267.612Z" fill="#828282"/>
<path d="M349.082 265.621C348.968 265.839 348.91 266.105 348.899 266.611H353.281V267.451H347.944V266.726C347.944 266.07 348.048 265.598 348.266 265.229C348.565 264.723 349.048 264.367 350.336 263.733C352.004 262.917 352.51 262.456 352.51 261.685C352.51 260.937 351.809 260.396 350.785 260.396C349.554 260.396 348.807 261.087 348.714 262.283L347.829 262.214C347.921 260.581 349.071 259.556 350.785 259.556C352.269 259.556 353.408 260.476 353.408 261.685C353.408 262.813 352.798 263.481 351.027 264.332C349.67 264.988 349.29 265.241 349.082 265.621ZM357.392 267.612C355.518 267.612 354.206 266.093 354.206 263.584C354.206 261.075 355.506 259.556 357.392 259.556C359.279 259.556 360.578 261.075 360.578 263.584C360.578 266.093 359.267 267.612 357.392 267.612ZM357.392 266.772C358.761 266.772 359.682 265.61 359.682 263.584C359.682 261.558 358.761 260.396 357.392 260.396C356.023 260.396 355.103 261.558 355.103 263.584C355.103 265.61 356.023 266.772 357.392 266.772ZM362.641 265.621C362.526 265.839 362.469 266.105 362.457 266.611H366.839V267.451H361.502V266.726C361.502 266.07 361.606 265.598 361.825 265.229C362.123 264.723 362.606 264.367 363.895 263.733C365.563 262.917 366.068 262.456 366.068 261.685C366.068 260.937 365.367 260.396 364.343 260.396C363.113 260.396 362.365 261.087 362.272 262.283L361.387 262.214C361.479 260.581 362.63 259.556 364.343 259.556C365.827 259.556 366.966 260.476 366.966 261.685C366.966 262.813 366.356 263.481 364.585 264.332C363.228 264.988 362.848 265.241 362.641 265.621ZM371.399 267.451V265.909H367.362V265.08L370.939 259.717H372.296V265.068H373.343V265.909H372.296V267.451H371.399ZM368.271 265.068H371.399V260.43H371.376L368.271 265.068Z" fill="#828282"/>
</g>
<path d="M499.838 11.3588H17.003C14.409 11.3588 12.3062 14.5835 12.3062 18.5615V268.255C12.3062 272.233 14.409 275.458 17.003 275.458H499.838C502.432 275.458 504.535 272.233 504.535 268.255V18.5615C504.535 14.5835 502.432 11.3588 499.838 11.3588Z" stroke="#E0E0E0" stroke-width="0.855894"/>
</g>
<defs>
<filter id="filter0_d_359_506" x="0" y="0" width="514" height="288.62" filterUnits="userSpaceOnUse" color-interpolation-filters="sRGB">
<feFlood flood-opacity="0" result="BackgroundImageFix"/>
<feColorMatrix in="SourceAlpha" type="matrix" values="0 0 0 0 0 0 0 0 0 0 0 0 0 0 0 0 0 0 127 0" result="hardAlpha"/>
<feOffset dy="0.855894"/>
<feComposite in2="hardAlpha" operator="out"/>
<feColorMatrix type="matrix" values="0 0 0 0 0 0 0 0 0 0 0 0 0 0 0 0 0 0 0.03 0"/>
<feBlend mode="normal" in2="BackgroundImageFix" result="effect1_dropShadow_359_506"/>
<feBlend mode="normal" in="SourceGraphic" in2="effect1_dropShadow_359_506" result="shape"/>
</filter>
<clipPath id="clip0_359_506">
<rect width="514" height="287.764" fill="white"/>
</clipPath>
</defs>
</svg>
