<svg width="15" height="11" viewBox="0 0 15 11" fill="none" xmlns="http://www.w3.org/2000/svg">
<path d="M0.403198 9.50322V8.01788C0.403198 4.28714 3.3985 1.21222 7.12038 1.19951C8.00788 1.19612 8.88775 1.36813 9.70834 1.70536C10.5298 2.04259 11.2758 2.53912 11.9051 3.16614C12.5334 3.79315 13.0331 4.53794 13.3735 5.35814C13.7139 6.17834 13.8892 7.05786 13.8892 7.94585V9.50322C13.8892 9.64049 13.8342 9.77267 13.7368 9.87011C13.6402 9.96755 13.5081 10.0218 13.3701 10.0218H0.921467C0.784278 10.0218 0.652159 9.96755 0.554771 9.87011C0.457384 9.77267 0.403198 9.64049 0.403198 9.50322Z" stroke="#3C4A41" stroke-width="0.741036" stroke-linecap="round" stroke-linejoin="round"/>
</svg>
