<svg width="102" height="102" viewBox="0 0 102 102" fill="none" xmlns="http://www.w3.org/2000/svg">
<g clip-path="url(#clip0_2_27667)">
<path d="M36.061 56.8611L37.0435 54.5648C38.1192 55.3614 39.5223 55.7831 40.9257 55.7831C41.9548 55.7831 42.6096 55.3849 42.6096 54.7758C42.5861 53.0886 36.4119 54.4008 36.3649 50.1589C36.3414 48.0031 38.2594 46.3394 40.9727 46.3394C42.5861 46.3394 44.2002 46.7379 45.346 47.6519L44.428 49.9972C43.3737 49.3193 42.0716 48.8467 40.8322 48.8467C39.9902 48.8467 39.4287 49.2449 39.4287 49.7608C39.4522 51.4245 45.6737 50.5104 45.7439 54.5648C45.7439 56.7676 43.8725 58.3142 41.2062 58.3142C39.2419 58.3142 37.4413 57.8456 36.061 56.8611ZM75.1815 53.7333C74.9335 54.1739 74.5728 54.5406 74.1363 54.7959C73.6998 55.0511 73.2033 55.1856 72.6977 55.1857C71.1218 55.1857 69.8445 53.9057 69.8445 52.3268C69.8445 50.7479 71.1218 49.4679 72.6977 49.4679C73.2033 49.468 73.6998 49.6025 74.1363 49.8577C74.5728 50.113 74.9335 50.4797 75.1815 50.9203L77.9129 49.4042C76.8899 47.5758 74.9383 46.3394 72.6977 46.3394C69.3974 46.3394 66.722 49.0198 66.722 52.3268C66.722 55.6335 69.3974 58.3142 72.6977 58.3142C74.9383 58.3142 76.8899 57.0778 77.9129 55.2494L75.1815 53.7333ZM47.5163 58.0798H50.9309V41.3552H47.5166L47.5163 58.0798ZM79.6374 41.3552V58.0798H83.052V53.0691L87.0983 58.0798H91.4629L86.3174 52.1272L91.0886 46.5728H86.9112L83.052 51.1907V41.3552H79.6374ZM61.451 46.5735V47.933C60.8899 46.9955 59.5099 46.3394 58.0598 46.3394C55.0661 46.3394 52.704 48.9876 52.704 52.3151C52.704 55.6425 55.0661 58.3142 58.0598 58.3142C59.5099 58.3142 60.8899 57.6581 61.451 56.7206V58.0798H64.8657V46.5735H61.451ZM61.451 53.7564C60.96 54.5765 59.9309 55.1853 58.785 55.1853C57.2088 55.1853 55.9315 53.9057 55.9315 52.3268C55.9315 50.7479 57.2088 49.4679 58.785 49.4679C59.9309 49.4679 60.96 50.1006 61.451 50.9438V53.7564Z" fill="#3C4A41"/>
<path d="M18.0279 40.9875C16.9213 40.9875 16.0243 41.8865 16.0243 42.9951C16.0241 43.2585 16.0757 43.5193 16.1762 43.7627C16.2768 44.0062 16.4243 44.2274 16.6103 44.4138C16.7964 44.6002 17.0173 44.7482 17.2605 44.8492C17.5037 44.9502 17.7645 45.0024 18.0279 45.0026H20.0317V42.9951C20.0322 42.4632 19.8213 41.9528 19.4455 41.5764C19.0697 41.1999 18.5598 40.9881 18.0279 40.9875ZM18.0279 46.341H12.6848C11.5782 46.341 10.6813 47.24 10.6813 48.3489C10.6813 49.4575 11.5782 50.3564 12.6848 50.3564H18.0282C19.1344 50.3564 20.0317 49.4575 20.0317 48.3489C20.0317 47.24 19.1344 46.341 18.0279 46.341Z" fill="#3C4A41"/>
<path d="M30.7179 48.3489C30.7179 47.24 29.8206 46.341 28.714 46.341C27.6074 46.341 26.7105 47.24 26.7105 48.3489V50.3564H28.714C29.2459 50.3559 29.7559 50.1441 30.1317 49.7676C30.5075 49.3911 30.7183 48.8808 30.7179 48.3489ZM25.3748 48.3489V42.9951C25.3753 42.4632 25.1644 41.9528 24.7886 41.5764C24.4128 41.1999 23.9029 40.9881 23.371 40.9875C22.2644 40.9875 21.3674 41.8865 21.3674 42.9951V48.3486C21.3674 49.4578 22.2644 50.3568 23.371 50.3568C23.9029 50.3562 24.4128 50.1444 24.7886 49.768C25.1644 49.3915 25.3753 48.8808 25.3748 48.3489Z" fill="#3C4A41"/>
<path d="M23.371 61.064C23.9029 61.0634 24.4128 60.8516 24.7886 60.4751C25.1644 60.0987 25.3753 59.5883 25.3748 59.0564C25.3753 58.5245 25.1644 58.0142 24.7886 57.6377C24.4128 57.2612 23.9029 57.0494 23.371 57.0489H21.3674V59.0564C21.3674 60.165 22.2644 61.064 23.371 61.064ZM23.371 55.7105H28.7144C29.8206 55.7105 30.7179 54.8115 30.7179 53.7026C30.7183 53.1707 30.5075 52.6604 30.1317 52.2839C29.7559 51.9074 29.2459 51.6956 28.714 51.6951H23.371C22.2644 51.6951 21.3674 52.594 21.3674 53.7026C21.3672 53.966 21.4188 54.2268 21.5193 54.4703C21.6199 54.7137 21.7674 54.9349 21.9534 55.1213C22.1395 55.3078 22.3604 55.4557 22.6036 55.5567C22.8468 55.6578 23.1076 55.7102 23.371 55.7105Z" fill="#3C4A41"/>
<path d="M10.6813 53.6994C10.681 53.9628 10.7326 54.2237 10.8332 54.4671C10.9337 54.7105 11.0812 54.9317 11.2673 55.1182C11.4533 55.3046 11.6742 55.4525 11.9175 55.5536C12.1607 55.6546 12.4214 55.7067 12.6848 55.707C13.2167 55.7065 13.7267 55.4947 14.1025 55.1182C14.4782 54.7417 14.6891 54.2314 14.6887 53.6994V51.6919H12.6848C11.5782 51.6919 10.6813 52.5908 10.6813 53.6994ZM16.0243 53.6994V59.0529C16.0243 60.1618 16.9213 61.0608 18.0279 61.0608C18.5598 61.0602 19.0697 60.8485 19.4455 60.472C19.8213 60.0955 20.0322 59.5852 20.0317 59.0532V53.6994C20.032 53.436 19.9804 53.1752 19.8798 52.9317C19.7792 52.6883 19.6317 52.467 19.4456 52.2806C19.2595 52.0942 19.0386 51.9462 18.7953 51.8452C18.552 51.7442 18.2913 51.6921 18.0279 51.6919C16.9213 51.6919 16.0243 52.5908 16.0243 53.6994Z" fill="#3C4A41"/>
</g>
<defs>
<clipPath id="clip0_2_27667">
<rect width="80.5032" height="20.1258" fill="white" transform="translate(10.6813 40.937)"/>
</clipPath>
</defs>
</svg>
